<?xml version="1.0" encoding="UTF-8" standalone="no"?>
<svg xmlns="http://www.w3.org/2000/svg" version="1.2" baseProfile="tiny" viewBox="0.00 0.00 97.00 163.00">
    <g stroke-width="2.00" fill="none" stroke-linecap="butt">

        <path stroke="#a4afab" vector-effect="non-scaling-stroke" d="
  M 57.08 28.98
  C 61.27 28.12 65.28 28.11 69.05 26.24
  Q 73.38 24.10 77.73 22.00
  Q 79.34 21.22 79.82 19.80
  C 82.33 12.35 72.24 11.89 67.77 10.32
  C 62.31 8.40 58.71 7.85 51.00 8.23
  C 45.51 8.50 42.30 10.97 37.52 12.04
  Q 36.21 12.33 34.15 14.87" />
        <path stroke="#9e9636" vector-effect="non-scaling-stroke" d="
  M 57.08 28.98
  Q 55.51 28.12 53.75 27.22
  Q 52.23 26.45 50.28 25.81
  C 47.02 24.75 41.06 23.46 38.96 20.62
  A 1.01 1.01 0.0 0 1 39.66 19.02
  C 44.11 18.46 48.30 18.85 52.78 17.66
  Q 59.49 15.87 66.22 16.91
  A 1.98 1.97 29.1 0 0 67.81 16.46
  L 68.01 16.29
  A 0.59 0.58 -57.6 0 0 67.79 15.28
  Q 64.70 14.41 61.48 14.45
  A 1.88 1.87 60.1 0 1 60.46 14.17
  C 57.34 12.25 49.92 12.90 45.97 13.21
  C 42.52 13.49 38.41 15.23 34.15 14.87" />
        <path stroke="#9e9636" vector-effect="non-scaling-stroke" d="
  M 54.99 43.73
  C 54.56 40.92 52.75 37.61 51.49 35.01
  C 49.59 31.08 44.57 27.02 41.13 24.37
  C 39.47 23.09 38.51 20.76 36.15 19.42
  C 34.34 18.39 31.52 16.17 29.64 18.16
  C 27.40 20.53 24.98 24.31 24.33 27.75
  C 23.76 30.83 22.80 34.08 22.67 36.72
  Q 22.34 43.49 25.79 49.44
  C 28.26 53.72 31.44 54.73 35.19 56.79
  Q 37.88 58.27 40.86 59.40
  Q 47.66 61.96 54.11 65.13
  A 1.47 1.47 0.0 0 0 56.17 64.23
  Q 56.81 62.11 56.67 59.74
  Q 56.20 51.70 54.99 43.73" />
        <path stroke="#9e9636" vector-effect="non-scaling-stroke" d="
  M 46.34 46.43
  C 42.99 39.78 38.94 33.54 35.12 27.12
  Q 34.17 25.52 32.82 24.29
  A 0.66 0.66 0.0 0 0 31.73 24.61
  C 30.98 27.36 31.50 29.56 32.80 32.29
  C 35.15 37.22 44.44 56.27 50.15 56.63
  A 0.82 0.81 -11.7 0 0 50.93 55.45
  Q 48.58 50.86 46.34 46.43" />
    </g>

    <path fill="#485e57" d="
  M 57.08 28.98
  Q 55.51 28.12 53.75 27.22
  Q 52.23 26.45 50.28 25.81
  C 47.02 24.75 41.06 23.46 38.96 20.62
  A 1.01 1.01 0.0 0 1 39.66 19.02
  C 44.11 18.46 48.30 18.85 52.78 17.66
  Q 59.49 15.87 66.22 16.91
  A 1.98 1.97 29.1 0 0 67.81 16.46
  L 68.01 16.29
  A 0.59 0.58 -57.6 0 0 67.79 15.28
  Q 64.70 14.41 61.48 14.45
  A 1.88 1.87 60.1 0 1 60.46 14.17
  C 57.34 12.25 49.92 12.90 45.97 13.21
  C 42.52 13.49 38.41 15.23 34.15 14.87
  Q 36.21 12.33 37.52 12.04
  C 42.30 10.97 45.51 8.50 51.00 8.23
  C 58.71 7.85 62.31 8.40 67.77 10.32
  C 72.24 11.89 82.33 12.35 79.82 19.80
  Q 79.34 21.22 77.73 22.00
  Q 73.38 24.10 69.05 26.24
  C 65.28 28.11 61.27 28.12 57.08 28.98
  Z" />
    <path fill="#f4ce14" d="
  M 57.08 28.98
  Q 61.33 32.19 65.79 34.95
  C 69.26 37.10 71.77 39.65 74.63 42.37
  Q 85.42 52.61 89.33 64.43
  C 92.45 73.83 95.17 83.61 94.24 93.00
  Q 91.50 120.41 79.52 145.21
  Q 76.87 150.69 76.39 155.99
  C 75.94 160.91 71.16 160.69 67.91 158.46
  Q 57.87 151.57 52.70 149.80
  C 47.83 148.14 43.01 146.62 38.78 143.80
  C 28.21 136.73 20.41 127.10 13.36 116.50
  Q 9.66 110.94 7.87 105.45
  C 3.98 93.47 3.72 80.97 4.56 68.00
  Q 4.65 66.46 5.49 64.21
  C 7.24 59.45 9.00 55.07 11.25 50.52
  Q 12.49 48.01 13.84 43.84
  C 15.03 40.15 19.27 34.63 19.21 28.50
  C 19.16 23.43 21.93 18.02 27.19 16.75
  Q 30.93 15.85 34.15 14.87
  C 38.41 15.23 42.52 13.49 45.97 13.21
  C 49.92 12.90 57.34 12.25 60.46 14.17
  A 1.88 1.87 60.1 0 0 61.48 14.45
  Q 64.70 14.41 67.79 15.28
  A 0.59 0.58 -57.6 0 1 68.01 16.29
  L 67.81 16.46
  A 1.98 1.97 29.1 0 1 66.22 16.91
  Q 59.49 15.87 52.78 17.66
  C 48.30 18.85 44.11 18.46 39.66 19.02
  A 1.01 1.01 0.0 0 0 38.96 20.62
  C 41.06 23.46 47.02 24.75 50.28 25.81
  Q 52.23 26.45 53.75 27.22
  Q 55.51 28.12 57.08 28.98
  Z
  M 54.99 43.73
  C 54.56 40.92 52.75 37.61 51.49 35.01
  C 49.59 31.08 44.57 27.02 41.13 24.37
  C 39.47 23.09 38.51 20.76 36.15 19.42
  C 34.34 18.39 31.52 16.17 29.64 18.16
  C 27.40 20.53 24.98 24.31 24.33 27.75
  C 23.76 30.83 22.80 34.08 22.67 36.72
  Q 22.34 43.49 25.79 49.44
  C 28.26 53.72 31.44 54.73 35.19 56.79
  Q 37.88 58.27 40.86 59.40
  Q 47.66 61.96 54.11 65.13
  A 1.47 1.47 0.0 0 0 56.17 64.23
  Q 56.81 62.11 56.67 59.74
  Q 56.20 51.70 54.99 43.73
  Z" />
    <path fill="#485e57" d="
  M 51.49 35.01
  C 52.75 37.61 54.56 40.92 54.99 43.73
  Q 56.20 51.70 56.67 59.74
  Q 56.81 62.11 56.17 64.23
  A 1.47 1.47 0.0 0 1 54.11 65.13
  Q 47.66 61.96 40.86 59.40
  Q 37.88 58.27 35.19 56.79
  C 31.44 54.73 28.26 53.72 25.79 49.44
  Q 22.34 43.49 22.67 36.72
  C 22.80 34.08 23.76 30.83 24.33 27.75
  C 24.98 24.31 27.40 20.53 29.64 18.16
  C 31.52 16.17 34.34 18.39 36.15 19.42
  C 38.51 20.76 39.47 23.09 41.13 24.37
  C 44.57 27.02 49.59 31.08 51.49 35.01
  Z
  M 46.34 46.43
  C 42.99 39.78 38.94 33.54 35.12 27.12
  Q 34.17 25.52 32.82 24.29
  A 0.66 0.66 0.0 0 0 31.73 24.61
  C 30.98 27.36 31.50 29.56 32.80 32.29
  C 35.15 37.22 44.44 56.27 50.15 56.63
  A 0.82 0.81 -11.7 0 0 50.93 55.45
  Q 48.58 50.86 46.34 46.43
  Z" />
    <path fill="#f4ce14" d="
  M 46.34 46.43
  Q 48.58 50.86 50.93 55.45
  A 0.82 0.81 -11.7 0 1 50.15 56.63
  C 44.44 56.27 35.15 37.22 32.80 32.29
  C 31.50 29.56 30.98 27.36 31.73 24.61
  A 0.66 0.66 0.0 0 1 32.82 24.29
  Q 34.17 25.52 35.12 27.12
  C 38.94 33.54 42.99 39.78 46.34 46.43
  Z" />
</svg>