
<svg xmlns="http://www.w3.org/2000/svg" width="960" height="960" fill="none"><style> path { stroke: #000; } @media (prefers-color-scheme: dark) {     path { stroke: #ffff; } }</style> <g clip-path="url(#a)"><g clip-path="url(#b)"><path fill="url(#c)" fill-rule="evenodd" d="M614.4 776.878a1211.339 1211.339 0 0 0-338.483 16.566 1191.047 1191.047 0 0 0-73.646 16.585l-1.283 1.413c74.669 67.901 172.462 109.047 279.562 109.047 111.669 0 213.242-44.734 288.989-117.879l-3.849-2.026a1191.503 1191.503 0 0 0-151.29-23.688v-.018Zm14.666 15.729a2.789 2.789 0 1 0-.759 5.526l109 14.956a2.79 2.79 0 0 0 .759-5.527l-109-14.955Z" clip-rule="evenodd"/><path fill="url(#d)" fill-rule="evenodd" d="M615.841 768.117c1.747-9.498 3.799-20.653 2.52-28.853-1.637-10.505-7.161-20.954-16.585-25.86-7.809-4.058-17.069-3.835-25.844-3.5-20.998.774-41.983 1.561-62.956 2.361-56.827 2.114-113.64 4.24-170.44 6.378l-38.711 1.45c-6.823.242-14.019.614-19.783 4.295-10.226 6.505-12.048 20.619-11.211 32.705.197 2.84.337 5.16.468 7.328.427 7.041.756 12.487 2.618 29.021A1211.337 1211.337 0 0 1 614.4 776.876l.13-1.3c.361-2.291.824-4.811 1.311-7.459Zm-26.79-46.798a2.79 2.79 0 1 0-2.969 4.722c11.797 7.416 16.734 24.246 10.815 36.86a2.787 2.787 0 0 0 1.34 3.709 2.788 2.788 0 0 0 3.709-1.339c7.117-15.165 1.286-35.037-12.895-43.952Z" clip-rule="evenodd"/><path fill="#171717" fill-rule="evenodd" d="M662.928 411.1c3.179-2.212 6.247-5.671 5.522-9.482-1.004-5.392-8.014-6.563-13.443-7.381a52.98 52.98 0 0 1-39.9-30.679l-2.585-.055a3376.2 3376.2 0 0 1-1.952 67.324 98.901 98.901 0 0 0 24.654 25.64c3.682 2.659 7.995 5.15 12.476 4.481 4.366-.67 7.864-4.406 9.166-8.627 1.302-4.221.707-8.834-.632-13.034a38.016 38.016 0 0 0-18.964-22.125 36.19 36.19 0 0 0 25.658-6.062Zm-33.404-27.742a2.79 2.79 0 0 0-4.408 3.418 44.817 44.817 0 0 0 26.437 16.445 2.79 2.79 0 1 0 1.118-5.465 39.242 39.242 0 0 1-23.147-14.398ZM612.1 176.663a505.85 505.85 0 0 0-32.1 42.782l-1.699-1.152c2.809-7.716 5.654-15.561 6.1-23.761.465-8.183-1.803-16.94-7.846-22.5-6.023-5.559-16.269-6.786-22.423-1.338-2.952 2.62-4.611 6.314-6.251 9.965-.385.857-.768 1.711-1.167 2.548-11.137 23.595-36.684 37.54-62.324 42.3-21.232 3.957-42.95 2.66-64.581 1.369-4.49-.268-8.976-.536-13.453-.756-26.048-1.283-53.101-.744-76.788 10.133-29.061 13.368-50.238 42.578-53.882 74.353-1.61 14.076-.011 28.199 1.591 42.34 1.394 12.307 2.789 24.628 2.071 36.94a109.018 109.018 0 0 1-37.26 75.32 47.158 47.158 0 0 0 34.657-1.841c-7.139 4.611-10.021 15.153-6.321 23.074 4.165 8.911 15.004 13.628 24.71 12.011 9.686-1.599 17.942-8.739 22.386-17.515l.334-.018c-2.143-30.586-3.649-61.227-4.3-91.886-.372-17.273-.446-34.769 3.7-51.54 4.165-16.77 12.997-32.983 27.257-42.745 18.482-12.661 42.545-12.622 64.945-12.122l142.366 3.179c20.675.446 41.796.855 61.951-3.105a122.957 122.957 0 0 0 18.426-5.057c25.453-9.259 48.415-30.585 51.372-57.508.65-5.968.167-12.476-3.607-17.142-6.043-7.456-18.277-6.88-26.123-1.339-7.865 5.54-12.402 14.539-16.622 23.167l-1.172-.186a73.34 73.34 0 0 0-6.953-45.237c-2.046-3.997-5.467-8.348-9.929-7.79-2.956.357-5.15 2.77-7.065 5.057ZM279.683 461.877a13.154 13.154 0 0 0-2.938 1.488c1-.465 1.971-.948 2.938-1.488Zm392.422-247.988a2.79 2.79 0 0 0-5.577-.108c-.367 18.802-12.411 36.956-29.587 44.606a2.79 2.79 0 0 0 2.27 5.096c19.152-8.53 32.485-28.628 32.894-49.594Z" clip-rule="evenodd"/><path stroke="#171717" stroke-linecap="round" stroke-linejoin="round" stroke-width="5.578" d="M342.461 716.73c-9.557-78.444-19.151-157-24.617-235.813-2.138-30.586-3.644-61.227-4.3-91.886-.372-17.273-.446-34.769 3.7-51.54 4.165-16.77 13-32.983 27.257-42.745 18.482-12.661 42.541-12.624 64.945-12.122l142.371 3.176c20.675.446 41.8.855 61.951-3.105a122.912 122.912 0 0 0 18.425-5.057c25.454-9.259 48.416-30.585 51.373-57.508.65-5.968.167-12.476-3.607-17.142-6.043-7.456-18.277-6.88-26.123-1.339-7.865 5.541-12.4 14.539-16.622 23.167"/><path stroke="#171717" stroke-linecap="round" stroke-linejoin="round" stroke-width="5.578" d="M635.968 225.153c.034-.172.058-.346.074-.52a73.347 73.347 0 0 0-6.953-45.237c-2.046-4-5.467-8.348-9.929-7.79-2.956.353-5.15 2.77-7.065 5.057A505.794 505.794 0 0 0 580 219.445l-.111.168M276.735 463.365c-7.139 4.611-10.021 15.153-6.321 23.074 4.165 8.906 15 13.628 24.71 12.011 9.687-1.6 17.942-8.739 22.386-17.515M276.734 463.365c1-.465 1.971-.948 2.938-1.488a13.24 13.24 0 0 0-2.938 1.488Z"/><path stroke="#171717" stroke-linecap="round" stroke-linejoin="round" stroke-width="5.578" d="M578.293 218.292c2.807-7.716 5.652-15.562 6.1-23.761.465-8.181-1.8-16.938-7.846-22.5-6.024-5.559-16.268-6.786-22.423-1.338-3.644 3.235-5.317 8.106-7.418 12.513-11.137 23.594-36.684 37.539-62.323 42.3-25.64 4.778-51.986 1.9-78.035.613s-53.1-.744-76.788 10.133c-29.061 13.368-50.238 42.578-53.882 74.353-3.012 26.327 5.206 52.822 3.663 79.28a109.016 109.016 0 0 1-37.261 75.32 47.16 47.16 0 0 0 34.658-1.841M615.107 363.558a52.982 52.982 0 0 0 16.073 20.381 52.99 52.99 0 0 0 23.827 10.298c5.429.818 12.439 1.989 13.443 7.381.725 3.811-2.343 7.27-5.522 9.482a36.195 36.195 0 0 1-25.658 6.062 38.023 38.023 0 0 1 18.964 22.125c1.339 4.2 1.934 8.813.632 13.034s-4.8 7.957-9.166 8.627c-4.481.669-8.794-1.822-12.476-4.481a98.917 98.917 0 0 1-24.654-25.64 1.597 1.597 0 0 1-.149-.2"/><path stroke="#171717" stroke-linecap="round" stroke-linejoin="round" stroke-width="5.578" d="M613.823 282.921c-.372 26.848-.725 53.715-1.3 80.582a4110.786 4110.786 0 0 1-1.951 67.324c-1.525 38.506-3.793 76.975-7.456 115.35-1.227 12.848-2.64 25.844-7.325 37.855-4.686 12.03-13.09 23.13-24.878 28.336-12.271 5.41-26.773 4-38.9 9.7-14.651 6.9-23.018 23.241-24.8 39.343-1.766 16.1 1.953 32.24 5.653 48.025M564.59 330.3c-24.022 1.3-48.05 2.589-72.084 3.867-3.087.167-6.6.558-8.423 3.068-1.469 2.027-1.283 4.778-1.041 7.27 4.165 42.782 8.336 85.558 12.513 128.328.465 4.8.8 10.077-2.083 13.944-6.191 8.311-20.824 2.919-28.726 9.65"/><path stroke="#171717" stroke-linecap="round" stroke-linejoin="round" stroke-width="5.578" d="M555.442 374.231a18.442 18.442 0 0 0-29.581-3.161M438.382 381.24a27.342 27.342 0 0 0-41.128 3.9M459.131 571.575a41.402 41.402 0 0 1-59.255-26.922M275.917 793.5v-.056c-2.435-21.624-2.249-24.283-3.086-36.349-.837-12.086.985-26.2 11.211-32.705 5.764-3.681 12.96-4.053 19.783-4.295l38.711-1.45c56.8-2.139 113.613-4.265 170.44-6.378 20.973-.8 41.958-1.587 62.956-2.361 8.775-.335 18.035-.558 25.844 3.5 9.426 4.909 14.948 15.358 16.585 25.863 1.636 10.486-2.176 25.807-3.831 36.312"/><path stroke="#171717" stroke-linecap="round" stroke-linejoin="round" stroke-width="5.578" d="M202.271 810.029a1189.265 1189.265 0 0 1 73.646-16.585A1211.337 1211.337 0 0 1 614.4 776.878v.018a1191.53 1191.53 0 0 1 151.29 23.688"/><path stroke="#171717" stroke-linecap="round" stroke-linejoin="round" stroke-width="5.578" d="M200.988 811.442C112.3 730.823 56.3 612.442 56.3 480.489c0-243.009 189.945-440 424.252-440 234.307 0 424.233 196.991 424.233 440 0 127.194-52.041 241.8-135.244 322.121-75.747 73.144-177.32 117.879-288.989 117.879-107.097 0-204.895-41.146-279.564-109.047Z"/><path stroke="#171717" stroke-linecap="round" stroke-linejoin="round" stroke-width="5.578" d="M229.5 342.909c-10.663-50.756 9.663-106.758 50.4-138.861M197.765 278.623a63.743 63.743 0 0 1 12.706-45.895c.521 1.31 1.041 2.621 1.56 3.931M598.2 657.326c29.509-6.982 52.8-34.756 54.538-65.029M715.116 386.27l52.184 24.308M699.743 343.774l112.664-45.138M681.258 316.76a215.933 215.933 0 0 1 30.831-49.027"/><path fill="#171717" d="M409.978 279.819c-12.051-3.436-24.529-3.39-36.85-2.061-7.021.758-14.875 5.344-20.115 8.109a86.87 86.87 0 0 0-18.519 13.375c-24.429 22.794-30.181 59.117-29.556 90.842.648 32.9 4.84 65.924 7.631 98.7a3300476.705 3300476.705 0 0 1 17.868 209.812c1 11.746 9.675 23.173 22.594 22.594 11.371-.509 23.682-9.984 22.594-22.594L359.4 510.561c-2.673-30.986-5.45-61.964-8.011-92.959-1.294-15.667-2.307-31.431-1.183-47.142.266-3.711.68-7.41 1.067-11.109.054-1.101.177-2.198.368-3.284-1.406 5.828-.008.461.2-.724a203.315 203.315 0 0 1 5.148-20.928c.302-1.046.621-2.087.958-3.122.258-.8 2.841-7.052.992-3.014 1.593-3.479 3.173-7.022 4.967-10.4 1.468-2.768 3.089-5.417 4.786-8.045.748-1.157 3.686-5.075 5.5-6.376 4.38-3.15 9.445-7.785 14.718-10.626 6.114-3.294 12.984-4.132 19.8-3.619 5.485.413 6.335-7.948 1.271-9.392l-.003-.002ZM296.589 718.205c-14.7.87-25.057 17.916-27.827 30.913a88.183 88.183 0 0 0 .4 40.189c.625 2.5 1.473 4.931 2.238 7.393a61.194 61.194 0 0 1 1.016 3.586c.687 2.808.3 2.029.112-.345.262 3.266.387-1.2.981-2.541a8.839 8.839 0 0 1 2.07-3.152l5.207-3.024c-1.235-.423-6.212 1.281-7.589 1.476-3.283.466-6.566.99-9.859 1.387 3.571-.43-2.677.268-2.737.275l-4.959.571-20.828 2.4c-10.146 1.169-20.1 8.173-19.592 19.592.429 9.558 8.695 20.912 19.592 19.592 14.87-1.8 29.724-3.61 44.632-5.07 9.258-.907 18.877-2.435 25.438-9.826 7.256-8.175 8.844-17.958 7.135-28.457-.9-5.536-3.038-10.709-4.236-16.174-.166-.756-1.329-6.231-.357-.966a36.806 36.806 0 0 1-.367-4.006 83.516 83.516 0 0 1-.257-8.851c.051-1.611.179-3.206.312-4.812.434-5.2-.967 4 .216-1.105a69.307 69.307 0 0 0 1.716-11.462c.093-1.518.132-3.035.28-4.549.028-.285.633-5.159.177-1.66.724-5.567.77-9.741-1.734-14.963-1.841-3.839-6.983-6.661-11.179-6.412l-.001.001Z" opacity=".1"/></g></g><defs><linearGradient id="c" x1="485.264" x2="485.264" y1="771.817" y2="920.489" gradientUnits="userSpaceOnUse"><stop stop-color="#FFB800"/><stop offset="1" stop-color="#FF7F0A"/></linearGradient><linearGradient id="d" x1="445.706" x2="445.706" y1="709.738" y2="793.442" gradientUnits="userSpaceOnUse"><stop stop-color="#FFB800"/><stop offset="1" stop-color="#FF7F0A"/></linearGradient><clipPath id="a"><path fill="#fff" d="M0 0h960v960H0z"/></clipPath><clipPath id="b"><path fill="#fff" d="M53 37h855v887H53z"/></clipPath></defs></svg>